<svg width="11" height="19" viewBox="0 0 11 19" fill="none" xmlns="http://www.w3.org/2000/svg">
<path d="M5.51367 0.75293C5.68153 0.750918 5.84957 0.8164 5.97363 0.958984L5.98047 0.966797L10.085 6.10645H10.084C10.2784 6.33629 10.302 6.67659 10.1533 6.93262L10.0781 7.03809C9.83152 7.32071 9.41561 7.32061 9.16895 7.03809L9.16113 7.0293V7.02832L5.5 2.44336L1.83789 7.0293L1.83203 7.03809L1.64258 6.87402L1.83105 7.03809C1.5844 7.32059 1.1685 7.32074 0.921875 7.03809C0.694937 6.77784 0.693423 6.36954 0.916016 6.10645H0.915039L5.01953 0.966797L5.02637 0.958984L5.07812 0.90625C5.19481 0.799916 5.33983 0.751497 5.48535 0.75293V0.750977C5.49015 0.750695 5.4952 0.75212 5.5 0.751953C5.50486 0.752119 5.50979 0.750693 5.51465 0.750977L5.51367 0.75293Z" fill="#040027" stroke="#040027" stroke-width="0.5"/>
<path d="M5.48633 18.2471C5.31847 18.2491 5.15043 18.1836 5.02637 18.041L5.01953 18.0332L0.915039 12.8936H0.916016C0.721568 12.6637 0.698035 12.3234 0.84668 12.0674L0.921875 11.9619C1.16848 11.6793 1.58439 11.6794 1.83105 11.9619L1.83887 11.9707V11.9717L5.5 16.5566L9.16211 11.9707L9.16797 11.9619L9.35742 12.126L9.16895 11.9619C9.4156 11.6794 9.8315 11.6793 10.0781 11.9619C10.3051 12.2222 10.3066 12.6305 10.084 12.8936H10.085L5.98047 18.0332L5.97363 18.041L5.92188 18.0938C5.80519 18.2001 5.66017 18.2485 5.51465 18.2471V18.249C5.50985 18.2493 5.5048 18.2479 5.5 18.248C5.49514 18.2479 5.49021 18.2493 5.48535 18.249L5.48633 18.2471Z" fill="#040027" stroke="#040027" stroke-width="0.5"/>
</svg>
