<svg width="13" height="14" viewBox="0 0 13 14" fill="none" xmlns="http://www.w3.org/2000/svg">
<path fill-rule="evenodd" clip-rule="evenodd" d="M6.06477 0C5.297 0 4.66642 0.630592 4.66641 1.39836C4.66641 1.63626 4.73223 1.85775 4.8387 2.05469C4.27609 2.22914 3.76177 2.51644 3.3273 2.89243C3.27902 2.93194 3.23914 2.98073 3.21003 3.03591C3.18092 3.09109 3.16316 3.15155 3.15782 3.21371C3.15247 3.27587 3.15964 3.33847 3.1789 3.39781C3.19816 3.45715 3.22913 3.51203 3.26996 3.5592C3.31079 3.60637 3.36067 3.64488 3.41664 3.67244C3.4726 3.70001 3.53353 3.71607 3.59582 3.71969C3.6581 3.72331 3.72048 3.7144 3.77926 3.6935C3.83804 3.6726 3.89204 3.64012 3.93806 3.598C4.51265 3.10072 5.25288 2.79945 6.06477 2.79945C7.86211 2.79945 9.33277 4.27013 9.33277 6.06746V8.64449C9.33276 8.71695 9.34961 8.78842 9.382 8.85324L10.2197 10.5242C10.3839 10.8516 10.1675 11.1987 9.7995 11.1987H2.33368C1.96559 11.1987 1.75008 10.8522 1.91436 10.5242L2.75119 8.85324C2.78358 8.78842 2.80043 8.71695 2.80041 8.64449V6.06746C2.80041 5.68398 2.8718 5.31575 2.99731 4.9681C3.01814 4.9104 3.0274 4.84916 3.02457 4.78788C3.02173 4.7266 3.00685 4.66648 2.98078 4.61095C2.95471 4.55542 2.91795 4.50557 2.87262 4.46425C2.82728 4.42292 2.77425 4.39093 2.71655 4.3701C2.65885 4.34927 2.59761 4.34001 2.53633 4.34285C2.47505 4.34568 2.41493 4.36056 2.3594 4.38664C2.24726 4.43929 2.16062 4.53434 2.11855 4.65087C1.95954 5.09129 1.86696 5.56835 1.86696 6.06746V8.53419L1.07935 10.1067C0.621533 11.0208 1.31253 12.1322 2.33368 12.1322H3.78036C3.99792 13.1942 4.94277 14 6.06659 14C7.19041 14 8.13526 13.1942 8.35283 12.1322H9.7995C10.8207 12.1322 11.5132 11.0211 11.0547 10.1067L10.2662 8.53419V6.06746C10.2662 4.18773 9.00882 2.58253 7.2954 2.05196C7.40143 1.85566 7.46769 1.63519 7.46769 1.39836C7.46768 0.630592 6.83253 0 6.06477 0ZM3.28446 0.760255C3.19497 0.757887 3.10668 0.781303 3.03013 0.827712C1.22538 1.88352 4.66762e-05 3.84244 4.66762e-05 6.06746C-0.000827993 6.1293 0.0105981 6.19071 0.0336609 6.2481C0.0567236 6.30549 0.0909631 6.35773 0.134389 6.40178C0.177816 6.44582 0.229563 6.48079 0.286624 6.50467C0.343685 6.52854 0.404921 6.54083 0.466774 6.54083C0.528627 6.54083 0.589864 6.52854 0.646924 6.50467C0.703985 6.48079 0.755732 6.44582 0.799159 6.40178C0.842585 6.35773 0.876825 6.30549 0.899887 6.2481C0.92295 6.19071 0.934376 6.1293 0.933502 6.06746C0.933502 4.18556 1.97255 2.52848 3.50233 1.63355C3.59137 1.58337 3.66148 1.50536 3.70189 1.41149C3.74231 1.31761 3.7508 1.21307 3.72607 1.11391C3.70133 1.01474 3.64472 0.926437 3.56495 0.862551C3.48517 0.798664 3.38663 0.762727 3.28446 0.760255ZM8.83505 0.762078C8.73428 0.767608 8.63802 0.805647 8.56069 0.870495C8.48336 0.935344 8.42914 1.02351 8.40614 1.12177C8.38314 1.22004 8.3926 1.32311 8.43312 1.41554C8.47363 1.50797 8.54301 1.58478 8.63086 1.63446C10.1605 2.52939 11.2006 4.18535 11.2006 6.06746C11.1997 6.1293 11.2111 6.19071 11.2342 6.2481C11.2573 6.30549 11.2915 6.35773 11.3349 6.40178C11.3784 6.44582 11.4301 6.48079 11.4872 6.50467C11.5442 6.52854 11.6055 6.54083 11.6673 6.54083C11.7292 6.54083 11.7904 6.52854 11.8475 6.50467C11.9045 6.48079 11.9563 6.44582 11.9997 6.40178C12.0431 6.35773 12.0774 6.30549 12.1004 6.2481C12.1235 6.19071 12.1349 6.1293 12.134 6.06746C12.134 3.84191 10.9072 1.88419 9.10306 0.828624C9.02248 0.77992 8.92905 0.756723 8.83505 0.762078ZM6.06477 0.929809C6.32806 0.929809 6.53332 1.13506 6.53332 1.39836C6.53332 1.66166 6.32806 1.86326 6.06477 1.86326C5.80147 1.86326 5.59986 1.66166 5.59986 1.39836C5.59987 1.13506 5.80148 0.929809 6.06477 0.929809ZM4.75119 12.1322H7.382C7.19108 12.6773 6.68066 13.0665 6.06659 13.0665C5.45253 13.0665 4.9421 12.6773 4.75119 12.1322Z" fill="black"/>
</svg>
