<svg width="15" height="16" viewBox="0 0 15 16" fill="none" xmlns="http://www.w3.org/2000/svg">
<path d="M14.9047 6.86238C14.8692 6.62806 14.7076 6.43256 14.4845 6.35345L13.3029 5.93328C13.233 5.73528 13.1537 5.5428 13.0658 5.3566L13.6035 4.22494C13.705 4.01153 13.6809 3.75913 13.5408 3.56828C13.0876 2.95184 12.546 2.41028 11.9312 1.95911C11.7402 1.81888 11.4886 1.79504 11.2748 1.89679L10.1438 2.43413C9.95762 2.34623 9.76488 2.26712 9.56671 2.19722L9.14636 1.01537C9.06725 0.792758 8.87227 0.631608 8.63846 0.595625C7.80775 0.467962 7.19294 0.467962 6.36093 0.595625C6.12739 0.631608 5.93215 0.792758 5.85304 1.01537L5.43269 2.19722C5.23452 2.26712 5.04178 2.34623 4.85575 2.43413L3.72435 1.89679C3.51094 1.79512 3.25898 1.81897 3.06813 1.95911C2.45331 2.41028 1.91176 2.95184 1.45852 3.56828C1.31829 3.75913 1.29428 4.01145 1.39577 4.22494L1.93354 5.3566C1.84565 5.54245 1.76653 5.73537 1.69646 5.93328L0.514611 6.35388C0.291739 6.43299 0.130418 6.62841 0.0946065 6.86238C0.0301295 7.28592 0 7.64704 0 8.00033C0 8.3531 0.0301295 8.71474 0.0946065 9.13828C0.130159 9.3726 0.291739 9.5681 0.514784 9.64721L1.69646 10.0674C1.76653 10.2657 1.8459 10.4583 1.93354 10.6445L1.39577 11.7757C1.29428 11.9891 1.31838 12.2415 1.45835 12.4319C1.91098 13.048 2.45254 13.5895 3.06813 14.0415C3.25898 14.1818 3.51094 14.2061 3.72452 14.1039L4.85549 13.5665C5.04169 13.6544 5.23444 13.7335 5.4326 13.8034L5.85295 14.9853C5.93206 15.2079 6.12704 15.3691 6.36085 15.405C6.77646 15.4691 7.14886 15.5001 7.49957 15.5001C7.85028 15.5001 8.22276 15.4691 8.63829 15.405C8.87201 15.3691 9.06708 15.2079 9.14619 14.9853L9.56654 13.8034C9.7647 13.7335 9.95745 13.6544 10.1436 13.5665L11.2746 14.1039C11.4885 14.206 11.7404 14.1817 11.9313 14.0415C12.5475 13.5887 13.0891 13.0472 13.5409 12.4319C13.6808 12.2415 13.705 11.9891 13.6035 11.7757L13.0657 10.6445C13.1536 10.4583 13.2329 10.2653 13.3028 10.0674L14.4844 9.64721C14.7075 9.5681 14.8691 9.37268 14.9046 9.13828C14.9691 8.71474 14.9992 8.35319 14.9992 8.00033C14.9992 7.64747 14.9692 7.28583 14.9047 6.86238ZM13.6827 8.56771L12.5741 8.96198C12.3803 9.03059 12.2313 9.18795 12.1729 9.38551C12.0739 9.72029 11.9436 10.0371 11.7852 10.3275C11.6869 10.5083 11.6808 10.7252 11.7691 10.9109L12.2719 11.9685C12.029 12.2602 11.7603 12.5293 11.4681 12.772L10.4108 12.2698C10.2247 12.1806 10.0086 12.1877 9.82755 12.2857C9.53667 12.4439 9.2197 12.5741 8.88466 12.6732C8.68753 12.7314 8.53017 12.8804 8.46139 13.0741L8.06695 14.1832C7.66433 14.2241 7.33498 14.2241 6.93236 14.1832L6.53792 13.0741C6.46906 12.8808 6.31169 12.7313 6.11465 12.6732C5.77944 12.5741 5.46221 12.4439 5.17177 12.2857C4.99073 12.1869 4.77414 12.1807 4.58855 12.2698L3.53117 12.7724C3.23926 12.5292 2.97059 12.2606 2.72741 11.9685L3.23022 10.9109C3.31855 10.7251 3.31243 10.5083 3.21413 10.3275C3.05616 10.0379 2.92574 9.72072 2.8264 9.38508C2.76804 9.18795 2.61885 9.03059 2.42525 8.96198L1.31666 8.56771C1.29574 8.36602 1.28567 8.18016 1.28567 8.00024C1.28567 7.82033 1.29574 7.6349 1.31666 7.43321L2.42551 7.0386C2.61903 6.96999 2.76804 6.81263 2.8264 6.61549C2.92557 6.28071 3.05599 5.96349 3.21413 5.67261C3.31243 5.49227 3.31855 5.27499 3.23022 5.08965L2.72741 4.03211C2.97077 3.74002 3.23943 3.47092 3.53117 3.22817L4.58898 3.73081C4.77414 3.82 4.99159 3.81285 5.1722 3.71489C5.46247 3.55666 5.77944 3.4265 6.11465 3.32734C6.31178 3.26914 6.46914 3.11979 6.53792 2.92644L6.93236 1.81742C7.33119 1.77601 7.66115 1.77601 8.06695 1.81742L8.46139 2.92644C8.53026 3.11979 8.68762 3.26923 8.88466 3.32734C9.21988 3.4265 9.5371 3.55666 9.82755 3.71489C10.0086 3.81362 10.2247 3.81991 10.4108 3.73081L11.4681 3.22817C11.7599 3.47092 12.0285 3.74002 12.2719 4.03211L11.7691 5.08965C11.6808 5.27508 11.6869 5.49227 11.7852 5.67261C11.9438 5.96435 12.0742 6.28114 12.1729 6.61506C12.2313 6.81263 12.3803 6.96999 12.5741 7.0386L13.6827 7.43286C13.7036 7.63456 13.7136 7.82041 13.7136 8.00033C13.7136 8.18025 13.7036 8.36602 13.6827 8.56771Z" fill="black"/>
<path d="M7.49945 4.87317C5.85852 4.87317 4.52344 6.20816 4.52344 7.84919C4.52344 9.49021 5.85843 10.8252 7.49945 10.8252C9.14048 10.8252 10.4755 9.49021 10.4755 7.84919C10.4755 6.20816 9.14039 4.87317 7.49945 4.87317ZM7.49945 9.53954C6.56742 9.53954 5.8091 8.78122 5.8091 7.84919C5.8091 6.91715 6.56742 6.15884 7.49945 6.15884C8.43149 6.15884 9.1898 6.91715 9.1898 7.84919C9.1898 8.78122 8.43149 9.53954 7.49945 9.53954Z" fill="black"/>
</svg>
