<svg width="15" height="16" viewBox="0 0 15 16" fill="none" xmlns="http://www.w3.org/2000/svg">
<path d="M13.8281 7.85413H13.8233V6.82335C13.8233 5.13433 13.1656 3.54641 11.9713 2.35209C10.777 1.15774 9.18902 0.5 7.5 0.5C5.81098 0.5 4.22303 1.15774 3.02871 2.35206C1.83437 3.54638 1.17665 5.1343 1.17665 6.82332V7.8541H1.17188C0.525703 7.8541 0 8.3798 0 9.02598V11.0923C0 11.7385 0.525703 12.2642 1.17188 12.2642H3.52878C3.69059 12.2642 3.82175 12.133 3.82175 11.9712V8.14707C3.82175 7.98526 3.69059 7.8541 3.52878 7.8541H2.93924V6.82332C2.93924 4.30854 4.98519 2.26259 7.49997 2.26259C10.0148 2.26259 12.0607 4.30854 12.0607 6.82332V7.8541H11.4712C11.3094 7.8541 11.1782 7.98526 11.1782 8.14707V11.9712C11.1782 12.133 11.3094 12.2642 11.4712 12.2642H13.2374V12.5522C13.2374 13.5301 12.4418 14.3257 11.4638 14.3257H8.92002C8.79976 13.9835 8.47351 13.7374 8.09068 13.7374H6.90926C6.42463 13.7374 6.03035 14.1317 6.03035 14.6163V14.6211C6.03035 15.1057 6.42463 15.5 6.90926 15.5H8.09068C8.47351 15.5 8.79973 15.2539 8.92002 14.9117H11.4639C12.7649 14.9117 13.8233 13.8532 13.8233 12.5522V12.2642H13.8281C14.4743 12.2642 15 11.7385 15 11.0923V9.02601C15 8.3798 14.4743 7.85413 13.8281 7.85413ZM8.38368 14.6211C8.38368 14.7826 8.25226 14.9141 8.09071 14.9141H6.90929C6.74774 14.9141 6.61632 14.7826 6.61632 14.6211V14.6163C6.61632 14.4548 6.74774 14.3233 6.90929 14.3233H8.09071C8.25226 14.3233 8.38368 14.4548 8.38368 14.6163V14.6211ZM0.585938 11.0923V9.02601C0.585938 8.70292 0.848789 8.44007 1.17188 8.44007H1.46962H2.05913V11.6783H1.17188C0.848789 11.6783 0.585938 11.4154 0.585938 11.0923ZM3.23581 11.6783H2.6451V8.44007H2.6463H3.23584L3.23581 11.6783ZM7.5 1.67665C4.6621 1.67665 2.35333 3.98545 2.35333 6.82332V7.8541H2.35213H1.76259V6.82332C1.76259 3.65973 4.33638 1.08594 7.5 1.08594C10.6636 1.08594 13.2374 3.65973 13.2374 6.82332V7.8541C12.9036 7.8541 12.9837 7.8541 12.6467 7.8541V6.82332C12.6467 3.98545 10.3379 1.67665 7.5 1.67665ZM11.7642 8.44007H12.3549V11.6783H11.7642V8.44007ZM14.4141 11.0923C14.4141 11.4154 14.1512 11.6783 13.8281 11.6783H12.9408V8.44007H13.8281C14.1512 8.44007 14.4141 8.70292 14.4141 9.02601V11.0923Z" fill="black"/>
</svg>
