<svg width="17" height="18" viewBox="0 0 17 18" fill="none" xmlns="http://www.w3.org/2000/svg">
<path d="M14.4598 6.13394H12.0645C11.9899 6.13394 11.9184 6.16357 11.8656 6.21632C11.8129 6.26906 11.7833 6.3406 11.7833 6.41519C11.7833 6.48978 11.8129 6.56132 11.8656 6.61407C11.9184 6.66681 11.9899 6.69644 12.0645 6.69644H14.1786V8.53748H2.71021C2.58889 8.53815 2.46865 8.51483 2.35637 8.46887C2.2441 8.42291 2.14202 8.35521 2.05601 8.26967C1.96999 8.18412 1.90172 8.08242 1.85515 7.97041C1.80857 7.85839 1.78459 7.73827 1.78459 7.61696C1.78459 7.49564 1.80857 7.37553 1.85515 7.26351C1.90172 7.1515 1.96999 7.04979 2.05601 6.96425C2.14202 6.8787 2.2441 6.81101 2.35637 6.76505C2.46865 6.71909 2.58889 6.69577 2.71021 6.69644H5.25986C5.33445 6.69644 5.40599 6.66681 5.45873 6.61407C5.51148 6.56132 5.54111 6.48978 5.54111 6.41519C5.54111 6.3406 5.51148 6.26906 5.45873 6.21632C5.40599 6.16357 5.33445 6.13394 5.25986 6.13394H2.71021C2.51544 6.13387 2.32256 6.17217 2.1426 6.24666C1.96264 6.32115 1.79912 6.43037 1.66139 6.56808C1.52365 6.70579 1.4144 6.86928 1.33988 7.04923C1.26535 7.22918 1.22701 7.42204 1.22705 7.61681V15.1631C1.22755 15.6169 1.40808 16.0521 1.72902 16.373C2.04997 16.694 2.48512 16.8745 2.939 16.875H15.1379C15.4401 16.8746 15.7298 16.7544 15.9435 16.5407C16.1572 16.3271 16.2774 16.0374 16.2778 15.7352V14.4168H16.4915C16.5284 14.4168 16.565 14.4096 16.5991 14.3954C16.6333 14.3813 16.6643 14.3606 16.6904 14.3345C16.7165 14.3084 16.7372 14.2773 16.7514 14.2432C16.7655 14.2091 16.7727 14.1725 16.7727 14.1356V11.2769C16.7727 11.24 16.7655 11.2034 16.7514 11.1693C16.7372 11.1351 16.7165 11.1041 16.6904 11.078C16.6643 11.0519 16.6333 11.0312 16.5991 11.017C16.565 11.0029 16.5284 10.9956 16.4915 10.9957H16.2778V8.81873C16.2778 8.78179 16.2705 8.7452 16.2564 8.71107C16.2423 8.67694 16.2216 8.64593 16.1955 8.6198C16.1693 8.59368 16.1383 8.57297 16.1042 8.55884C16.0701 8.54471 16.0335 8.53745 15.9965 8.53748H14.7411V6.41519C14.7411 6.37825 14.7338 6.34167 14.7197 6.30754C14.7056 6.2734 14.6849 6.24239 14.6587 6.21627C14.6326 6.19015 14.6016 6.16943 14.5675 6.15531C14.5333 6.14118 14.4967 6.13392 14.4598 6.13394ZM16.2102 11.5582V13.8543H14.0907C13.8638 13.8542 13.642 13.7868 13.4534 13.6607C13.2648 13.5345 13.1178 13.3553 13.0311 13.1456C12.9444 12.9359 12.9218 12.7052 12.9661 12.4827C13.0105 12.2602 13.1199 12.0558 13.2804 11.8954C13.3862 11.7881 13.5123 11.7029 13.6515 11.645C13.7906 11.587 13.9399 11.5575 14.0907 11.5582H16.2102ZM15.7153 9.09998V10.9957H14.0907C13.6372 10.9966 13.2026 11.1774 12.8822 11.4983C12.5618 11.8192 12.3817 12.2541 12.3815 12.7076C12.382 13.1608 12.5623 13.5952 12.8827 13.9156C13.2031 14.236 13.6375 14.4163 14.0907 14.4168H15.7153V15.7352C15.7151 15.8882 15.6542 16.035 15.546 16.1432C15.4378 16.2514 15.291 16.3123 15.1379 16.3125H2.939C2.63424 16.3122 2.34205 16.191 2.12656 15.9755C1.91106 15.76 1.78986 15.4678 1.78955 15.1631V8.7789C2.0512 8.98714 2.37581 9.10034 2.71021 9.09998H15.7153Z" fill="#040027"/>
<path d="M13.6064 12.7065C13.6064 12.8753 13.6565 13.0404 13.7503 13.1808C13.8441 13.3212 13.9774 13.4306 14.1334 13.4952C14.2894 13.5598 14.461 13.5767 14.6266 13.5438C14.7922 13.5108 14.9443 13.4295 15.0637 13.3101C15.1831 13.1907 15.2644 13.0386 15.2973 12.873C15.3303 12.7075 15.3134 12.5358 15.2487 12.3798C15.1841 12.2239 15.0747 12.0905 14.9343 11.9967C14.794 11.9029 14.6289 11.8529 14.4601 11.8529C14.2338 11.8531 14.0168 11.9431 13.8567 12.1031C13.6967 12.2632 13.6067 12.4802 13.6064 12.7065ZM14.4601 12.4154C14.5176 12.4154 14.5739 12.4325 14.6217 12.4645C14.6695 12.4965 14.7068 12.5419 14.7288 12.5951C14.7508 12.6482 14.7566 12.7067 14.7453 12.7632C14.7341 12.8196 14.7064 12.8715 14.6657 12.9121C14.625 12.9528 14.5732 12.9805 14.5168 12.9918C14.4603 13.003 14.4018 12.9973 14.3486 12.9753C14.2955 12.9532 14.25 12.916 14.218 12.8681C14.1861 12.8203 14.169 12.7641 14.1689 12.7065C14.1691 12.6293 14.1998 12.5554 14.2544 12.5008C14.3089 12.4462 14.3829 12.4155 14.4601 12.4154Z" fill="#040027"/>
<path d="M2.62842 15.1331C2.62854 15.2835 2.68833 15.4277 2.79466 15.5341C2.90099 15.6405 3.04518 15.7004 3.19559 15.7006H5.69498C5.76957 15.7006 5.84111 15.6709 5.89385 15.6182C5.94659 15.5654 5.97623 15.4939 5.97623 15.4193C5.97623 15.3447 5.94659 15.2732 5.89385 15.2204C5.84111 15.1677 5.76957 15.1381 5.69498 15.1381L3.19092 15.1331V13.0721C3.19092 12.9975 3.16129 12.926 3.10854 12.8732C3.0558 12.8205 2.98426 12.7908 2.90967 12.7908C2.83508 12.7908 2.76354 12.8205 2.71079 12.8732C2.65805 12.926 2.62842 12.9975 2.62842 13.0721V15.1331Z" fill="#040027"/>
<path d="M8.66379 7.43527C9.28783 7.4353 9.89786 7.25027 10.4167 6.90359C10.9356 6.55691 11.34 6.06415 11.5789 5.48762C11.8177 4.91109 11.8802 4.27668 11.7584 3.66463C11.6367 3.05259 11.3362 2.49038 10.8949 2.04912C10.4537 1.60786 9.89148 1.30736 9.27943 1.18562C8.66738 1.06388 8.03297 1.12638 7.45644 1.3652C6.87991 1.60402 6.38715 2.00844 6.04047 2.52732C5.69379 3.0462 5.50876 3.65624 5.50879 4.28027C5.50975 5.11674 5.84245 5.91867 6.43392 6.51014C7.02539 7.10161 7.82732 7.43432 8.66379 7.43527ZM8.66379 1.6875C9.17656 1.68747 9.67783 1.8395 10.1042 2.12436C10.5306 2.40922 10.8629 2.81412 11.0592 3.28785C11.2554 3.76158 11.3068 4.28287 11.2068 4.7858C11.1068 5.28873 10.8599 5.7507 10.4973 6.11331C10.1347 6.47592 9.67277 6.72287 9.16986 6.82293C8.66694 6.92299 8.14565 6.87168 7.67189 6.67547C7.19814 6.47927 6.79321 6.14698 6.5083 5.72064C6.2234 5.2943 6.07132 4.79305 6.07129 4.28027C6.07209 3.59292 6.34547 2.93394 6.83148 2.44789C7.31749 1.96183 7.97643 1.68837 8.66379 1.6875Z" fill="#040027"/>
<path d="M8.69102 5.35061H7.98488C7.91028 5.35061 7.83875 5.38024 7.786 5.43299C7.73326 5.48573 7.70363 5.55727 7.70363 5.63186C7.70363 5.70646 7.73326 5.77799 7.786 5.83074C7.83875 5.88348 7.91028 5.91311 7.98488 5.91311H8.38284V6.08918C8.38284 6.16377 8.41248 6.2353 8.46522 6.28805C8.51796 6.34079 8.5895 6.37043 8.66409 6.37043C8.73869 6.37043 8.81022 6.34079 8.86297 6.28805C8.91571 6.2353 8.94534 6.16377 8.94534 6.08918V5.8734C9.14003 5.81848 9.31152 5.70164 9.43388 5.54056C9.55624 5.37948 9.6228 5.18293 9.62349 4.98065V4.88233C9.62326 4.63507 9.52496 4.39799 9.35014 4.22313C9.17533 4.04826 8.93828 3.94989 8.69102 3.94959H8.63609C8.53797 3.94959 8.44387 3.91061 8.37449 3.84123C8.3051 3.77185 8.26613 3.67775 8.26613 3.57963C8.26613 3.48151 8.3051 3.3874 8.37449 3.31802C8.44387 3.24864 8.53797 3.20966 8.63609 3.20966H9.34224C9.41683 3.20966 9.48837 3.18003 9.54111 3.12729C9.59386 3.07454 9.62349 3.003 9.62349 2.92841C9.62349 2.85382 9.59386 2.78228 9.54111 2.72954C9.48837 2.67679 9.41683 2.64716 9.34224 2.64716H8.94536V2.4711C8.94536 2.39651 8.91572 2.32497 8.86298 2.27223C8.81023 2.21948 8.7387 2.18985 8.66411 2.18985C8.58951 2.18985 8.51798 2.21948 8.46523 2.27223C8.41249 2.32497 8.38286 2.39651 8.38286 2.4711V2.68652C8.16625 2.74717 7.97896 2.88428 7.85569 3.07244C7.73242 3.2606 7.68153 3.48705 7.71244 3.70986C7.74334 3.93267 7.85396 4.13673 8.02379 4.28423C8.19361 4.43173 8.41115 4.51268 8.63609 4.51209H8.69102C8.78915 4.51223 8.8832 4.5513 8.95256 4.62071C9.02192 4.69012 9.06091 4.7842 9.06099 4.88233V4.98065C9.0609 5.07875 9.02189 5.1728 8.95253 5.24216C8.88317 5.31152 8.78912 5.35053 8.69102 5.35061Z" fill="#040027"/>
</svg>
