<svg width="17" height="12" viewBox="0 0 17 12" fill="none" xmlns="http://www.w3.org/2000/svg">
<path d="M11.5659 11.4384H1.9328C1.60774 11.4384 1.34424 11.1749 1.34424 10.8499V2.20383H15.281V10.8499C15.281 11.1749 15.0175 11.4384 14.6924 11.4384H12.5959" stroke="#040027" stroke-width="0.8" stroke-miterlimit="10" stroke-linecap="round" stroke-linejoin="round"/>
<path d="M4.77503 0.561554H15.1842C15.428 0.561554 15.6256 0.759191 15.6256 1.00297V1.76242C15.6256 2.0062 15.428 2.20383 15.1842 2.20383H1.44142C1.19764 2.20383 1 2.0062 1 1.76242V1.00297C1 0.759191 1.19764 0.561554 1.44142 0.561554H3.74506" stroke="#040027" stroke-width="0.8" stroke-miterlimit="10" stroke-linecap="round" stroke-linejoin="round"/>
<path d="M2.4209 3.51976H6.29867" stroke="#040027" stroke-width="0.8" stroke-miterlimit="10" stroke-linecap="round" stroke-linejoin="round"/>
<path d="M2.4209 4.61073H5.35312" stroke="#040027" stroke-width="0.8" stroke-miterlimit="10" stroke-linecap="round" stroke-linejoin="round"/>
<path d="M13.0913 3.51976H14.2047" stroke="#040027" stroke-width="0.8" stroke-miterlimit="10" stroke-linecap="round" stroke-linejoin="round"/>
<path d="M13.0913 4.61073H14.2047" stroke="#040027" stroke-width="0.8" stroke-miterlimit="10" stroke-linecap="round" stroke-linejoin="round"/>
<path d="M13.0913 8.93001H14.2047" stroke="#040027" stroke-width="0.8" stroke-miterlimit="10" stroke-linecap="round" stroke-linejoin="round"/>
<path d="M12.2085 10.021H14.2047" stroke="#040027" stroke-width="0.8" stroke-miterlimit="10" stroke-linecap="round" stroke-linejoin="round"/>
<path d="M2.4209 5.70172H4.6477" stroke="#040027" stroke-width="0.8" stroke-miterlimit="10" stroke-linecap="round" stroke-linejoin="round"/>
<path d="M9.37525 3.96968C7.6762 3.96968 6.29883 5.34702 6.29883 7.0461C6.29883 8.74515 7.6762 10.1225 9.37525 10.1225C11.0743 10.1225 12.4517 8.74515 12.4517 7.0461C12.4517 5.34702 11.0743 3.96968 9.37525 3.96968ZM9.37525 8.64335C8.49309 8.64335 7.77799 7.92823 7.77799 7.0461C7.77799 6.16394 8.49312 5.44884 9.37525 5.44884C10.2574 5.44884 10.9725 6.16397 10.9725 7.0461C10.9725 7.92823 10.2574 8.64335 9.37525 8.64335Z" stroke="#040027" stroke-width="0.8" stroke-miterlimit="10" stroke-linecap="round" stroke-linejoin="round"/>
<path d="M7.26318 4.93398L8.18395 5.85474" stroke="#040027" stroke-width="0.8" stroke-miterlimit="10" stroke-linecap="round" stroke-linejoin="round"/>
<path d="M10.5044 8.17554L11.5457 9.21684" stroke="#040027" stroke-width="0.8" stroke-miterlimit="10" stroke-linecap="round" stroke-linejoin="round"/>
<path d="M4.62758 10.021H2.86232C2.61854 10.021 2.4209 9.82334 2.4209 9.57956V9.28343C2.4209 9.03965 2.61854 8.84201 2.86232 8.84201H4.62758C4.87136 8.84201 5.06899 9.03965 5.06899 9.28343V9.57956C5.06899 9.82334 4.87136 10.021 4.62758 10.021Z" stroke="#040027" stroke-width="0.8" stroke-miterlimit="10" stroke-linecap="round" stroke-linejoin="round"/>
<path d="M2.4209 7.7865H3.88699" stroke="#040027" stroke-width="0.8" stroke-miterlimit="10" stroke-linecap="round" stroke-linejoin="round"/>
</svg>
